<?xml version="1.0" standalone="no"?>
<!DOCTYPE svg PUBLIC "-//W3C//DTD SVG 20010904//EN"
 "http://www.w3.org/TR/2001/REC-SVG-20010904/DTD/svg10.dtd">
<svg version="1.0" xmlns="http://www.w3.org/2000/svg"
 width="1024.000000pt" height="1024.000000pt" viewBox="0 0 1024.000000 1024.000000"
 preserveAspectRatio="xMidYMid meet">
<metadata>
Created by potrace 1.11, written by Peter Selinger 2001-2013
</metadata>
<g transform="translate(0.000000,1024.000000) scale(0.100000,-0.100000)"
fill="#000000" stroke="none">
<path d="M0 5120 l0 -5120 5120 0 5120 0 0 5120 0 5120 -5120 0 -5120 0 0
-5120z m7253 2558 c-18 -112 -33 -208 -33 -214 0 -8 18 -6 58 6 86 27 224 48
396 61 423 33 874 -62 1182 -247 511 -306 765 -837 741 -1549 -7 -196 -24
-330 -64 -500 -213 -908 -931 -1507 -1954 -1631 -88 -11 -261 -19 -508 -23
l-375 -6 -82 -583 c-45 -321 -84 -585 -86 -588 -3 -2 -306 -3 -674 -2 l-669 3
161 1160 c89 638 207 1452 263 1809 55 358 99 652 96 654 -5 6 -120 -73 -200
-138 -93 -76 -228 -218 -325 -344 -43 -55 -89 -111 -101 -123 -82 -75 -179
-33 -179 77 0 108 159 443 334 705 161 241 381 486 548 610 26 20 27 23 92
515 37 272 69 507 72 523 l6 27 667 0 667 0 -33 -202z m-3758 -37 c610 -107
1030 -418 1198 -887 55 -154 72 -262 72 -474 0 -151 -4 -214 -18 -280 -86
-401 -317 -687 -700 -865 l-104 -49 73 -32 c171 -74 342 -218 448 -377 172
-258 222 -558 156 -941 -38 -224 -131 -452 -257 -629 -78 -110 -257 -288 -371
-367 -307 -215 -668 -345 -1127 -407 -162 -21 -640 -24 -815 -5 -541 61 -1010
186 -1358 361 -78 39 -83 44 -78 69 3 15 47 270 97 567 50 297 92 541 94 543
1 1 74 -33 161 -77 337 -169 601 -258 943 -318 179 -31 557 -44 718 -23 420
53 629 259 610 600 -13 233 -139 358 -422 421 -94 20 -130 22 -632 26 -394 4
-533 8 -532 16 0 7 35 246 77 532 l77 520 490 6 c507 6 561 10 714 55 136 39
272 135 328 232 35 59 61 147 69 234 12 135 -28 250 -114 329 -57 53 -186 113
-287 134 -213 44 -608 23 -945 -51 -234 -52 -562 -175 -817 -309 -57 -29 -103
-50 -103 -45 0 4 40 269 90 588 49 320 90 585 90 590 0 5 8 12 18 15 9 3 76
26 147 51 377 132 811 224 1205 256 74 6 155 12 180 14 25 2 149 2 275 1 179
-2 256 -8 350 -24z"/>
<path d="M7258 6486 c-42 -8 -98 -21 -125 -30 l-49 -16 -123 -858 c-68 -471
-126 -870 -129 -886 l-5 -29 184 6 c101 4 227 13 279 21 511 79 798 367 870
874 8 50 10 148 8 250 -4 147 -8 177 -32 249 -33 102 -109 217 -179 273 -70
56 -168 105 -263 130 -102 28 -325 35 -436 16z"/>
</g>
</svg>
